<svg xmlns="http://www.w3.org/2000/svg" aria-hidden="true" style="position:absolute;width:0;height:0;overflow:hidden"><defs><symbol id="icon-envelope1" viewBox="0 0 43 32"><path fill="#757575" d="M38.667 0H4C1.794 0 0 1.794 0 4v24c0 2.206 1.794 4 4 4h34.667c2.206 0 4-1.794 4-4V4c0-2.206-1.794-4-4-4zm0 2.667c.181 0 .353.038.511.103L21.334 18.236 3.49 2.77a1.32 1.32 0 0 1 .511-.103h34.667zm0 26.666H4A1.334 1.334 0 0 1 2.667 28V5.587L20.46 21.008a1.335 1.335 0 0 0 1.748 0L40.001 5.587V28c0 .736-.598 1.333-1.333 1.333z" style="fill:var(--color1, #757575)"/></symbol><symbol id="icon-Ellipse3" viewBox="0 0 32 32"><path fill="#fff" d="M32 16c0 4.418-1.791 8.418-4.686 11.314S20.419 32 16 32s-8.418-1.791-11.314-4.686C1.791 24.419 0 20.419 0 16S1.791 7.582 4.686 4.686 11.581 0 16 0c4.418 0 8.418 1.791 11.314 4.686S32 11.581 32 16z" style="fill:var(--color2, #fff)"/><path fill="#afb1b8" d="M23.269 23.273v-.001h.004v-5.335c0-2.61-.562-4.62-3.613-4.62-1.467 0-2.451.805-2.853 1.568h-.042v-1.324h-2.893v9.711h3.012v-4.809c0-1.266.24-2.49 1.808-2.49 1.545 0 1.568 1.445 1.568 2.572v4.728h3.009zM8.967 13.562h3.016v9.711H8.967v-9.711zM10.474 8.727c-.964 0-1.747.782-1.747 1.747s.782 1.763 1.747 1.763c.964 0 1.747-.799 1.747-1.763s-.783-1.747-1.747-1.747z" style="fill:var(--color3, #afb1b8)"/></symbol><symbol id="icon-Ellipse2" viewBox="0 0 32 32"><path fill="#fff" d="M32 16c0 4.418-1.791 8.418-4.686 11.314S20.419 32 16 32s-8.418-1.791-11.314-4.686C1.791 24.419 0 20.419 0 16S1.791 7.582 4.686 4.686 11.581 0 16 0c4.418 0 8.418 1.791 11.314 4.686S32 11.581 32 16z" style="fill:var(--color2, #fff)"/><path fill="#afb1b8" d="M18.422 11.142h1.328V8.829a17.317 17.317 0 0 0-1.935-.102c-1.915 0-3.226 1.204-3.226 3.418v2.037h-2.113v2.585h2.113v6.505h2.59v-6.505h2.027l.322-2.585h-2.35v-1.781c.001-.747.202-1.259 1.243-1.259z" style="fill:var(--color3, #afb1b8)"/></symbol><symbol id="icon-Ellipse1" viewBox="0 0 32 32"><path fill="#fff" d="M32 16c0 4.418-1.791 8.418-4.686 11.314S20.419 32 16 32s-8.418-1.791-11.314-4.686C1.791 24.419 0 20.419 0 16S1.791 7.582 4.686 4.686 11.581 0 16 0c4.418 0 8.418 1.791 11.314 4.686S32 11.581 32 16z" style="fill:var(--color2, #fff)"/><path fill="#afb1b8" d="M23.273 11.49a6.248 6.248 0 0 1-1.718.471 2.967 2.967 0 0 0 1.312-1.648 5.963 5.963 0 0 1-1.891.722 2.981 2.981 0 0 0-5.158 2.039c0 .236.02.464.069.68a8.439 8.439 0 0 1-6.146-3.119 2.985 2.985 0 0 0 .917 3.985 2.943 2.943 0 0 1-1.347-.367v.033a2.996 2.996 0 0 0 2.389 2.93 2.992 2.992 0 0 1-.782.098 2.64 2.64 0 0 1-.565-.051 3.01 3.01 0 0 0 2.786 2.077 5.991 5.991 0 0 1-3.697 1.272 5.59 5.59 0 0 1-.714-.041 8.393 8.393 0 0 0 4.575 1.338c5.487 0 8.487-4.545 8.487-8.485 0-.132-.005-.259-.011-.385a5.95 5.95 0 0 0 1.495-1.548z" style="fill:var(--color3, #afb1b8)"/></symbol><symbol id="icon-Ellipse" viewBox="0 0 32 32"><path fill="#fff" d="M32 16c0 4.418-1.791 8.418-4.686 11.314S20.419 32 16 32s-8.418-1.791-11.314-4.686C1.791 24.419 0 20.419 0 16S1.791 7.582 4.686 4.686 11.581 0 16 0c4.418 0 8.418 1.791 11.314 4.686S32 11.581 32 16z" style="fill:var(--color2, #fff)"/><path fill="#afb1b8" d="M23.258 13.004c-.034-.773-.159-1.304-.338-1.765a3.557 3.557 0 0 0-.841-1.29 3.589 3.589 0 0 0-1.287-.838c-.463-.179-.992-.304-1.764-.338-.779-.037-1.026-.046-3.001-.046s-2.222.009-2.998.043c-.773.034-1.304.159-1.764.338a3.557 3.557 0 0 0-1.29.841 3.589 3.589 0 0 0-.838 1.287c-.179.463-.304.992-.338 1.764-.037.779-.045 1.026-.045 3.001s.008 2.222.043 2.998c.034.773.159 1.304.338 1.765.185.489.472.926.841 1.29.364.369.804.656 1.287.838.463.179.992.304 1.765.338.776.034 1.023.043 2.998.043s2.222-.008 2.998-.043c.773-.034 1.304-.159 1.764-.338a3.72 3.72 0 0 0 2.128-2.128c.179-.463.304-.992.338-1.765.034-.776.043-1.023.043-2.998s-.003-2.222-.037-2.998zm-1.309 5.938c-.031.71-.151 1.094-.25 1.35a2.409 2.409 0 0 1-1.381 1.381c-.256.099-.642.219-1.35.25-.767.034-.997.043-2.938.043s-2.174-.008-2.938-.043c-.71-.031-1.094-.15-1.35-.25a2.228 2.228 0 0 1-.835-.543 2.264 2.264 0 0 1-.543-.835c-.099-.256-.219-.642-.25-1.35-.034-.767-.043-.997-.043-2.938s.008-2.174.043-2.938c.031-.71.151-1.094.25-1.35.117-.315.301-.602.546-.835.236-.242.52-.426.835-.543.256-.099.642-.219 1.35-.25.767-.034.997-.043 2.938-.043 1.944 0 2.174.008 2.938.043.71.031 1.094.151 1.35.25.315.116.602.301.835.543.241.236.426.52.543.835.099.256.219.642.25 1.35.034.767.043.997.043 2.938s-.009 2.168-.043 2.935z" style="fill:var(--color3, #afb1b8)"/><path fill="#afb1b8" d="M16.027 12.265a3.737 3.737 0 0 0 0 7.472c2.063 0 3.737-1.674 3.737-3.736s-1.674-3.736-3.737-3.736zm0 6.16a2.424 2.424 0 1 1 0-4.849 2.424 2.424 0 0 1 0 4.849zM20.784 12.117a.872.872 0 1 1-1.744 0 .872.872 0 0 1 1.744 0z" style="fill:var(--color3, #afb1b8)"/></symbol><symbol id="icon-Client-6" viewBox="0 0 59 32"><path fill="#afb1b8" d="M29.713 15.098a1.024 1.024 0 0 1-.21-.692v-1.003c0-.307.07-.541.209-.701s.379-.239.718-.239c.319 0 .546.068.679.204a.833.833 0 0 1 .201.6v.236h-.571v-.239a1.153 1.153 0 0 0-.017-.234.224.224 0 0 0-.082-.139.33.33 0 0 0-.207-.054.346.346 0 0 0-.217.057.27.27 0 0 0-.095.153 1.15 1.15 0 0 0-.022.248v1.217a.624.624 0 0 0 .073.342c.028.036.068.065.114.083s.097.025.147.019a.314.314 0 0 0 .202-.055.245.245 0 0 0 .085-.148c.013-.081.019-.162.018-.244v-.247h.571v.225a.916.916 0 0 1-.197.63c-.131.149-.355.223-.683.223s-.577-.08-.717-.245zM32.089 15.109c-.144-.156-.216-.384-.216-.685v-1.055c0-.298.072-.523.216-.676s.385-.229.723-.229c.336 0 .575.076.72.229s.217.379.217.676v1.055c0 .298-.073.526-.22.684s-.385.236-.717.236c-.332 0-.578-.08-.723-.235zm.989-.253a.592.592 0 0 0 .069-.312v-1.292a.579.579 0 0 0-.067-.306c-.029-.037-.069-.066-.117-.084s-.099-.024-.151-.018c-.051-.006-.103 0-.151.018s-.088.047-.117.084a.569.569 0 0 0-.069.306v1.298a.572.572 0 0 0 .069.312c.033.033.074.059.12.077a.404.404 0 0 0 .414-.077v-.006zM34.436 12.495h.614l.462 1.946.473-1.946h.598l.061 2.809h-.442l-.047-1.952-.456 1.952h-.354l-.473-1.96-.044 1.96h-.447l.056-2.809zM37.332 12.495h.957c.551 0 .827.266.827.798 0 .509-.29.764-.871.763h-.326v1.249h-.591l.003-2.809zm.818 1.201a.464.464 0 0 0 .325-.089.451.451 0 0 0 .085-.317.88.88 0 0 0-.029-.255c-.008-.028-.023-.054-.043-.077s-.046-.042-.074-.057a.62.62 0 0 0-.264-.045h-.229v.839h.229zM39.968 12.495h.635l.651 2.809h-.551l-.129-.648h-.566l-.133.648h-.559l.651-2.809zm.543 1.836-.221-1.179-.221 1.179h.442zM41.78 12.495h.414l.792 1.603v-1.603h.49v2.809h-.393l-.797-1.673v1.673h-.507l.001-2.809zM44.624 14.233l-.658-1.734h.554l.402 1.114.377-1.114h.543l-.65 1.734v1.071h-.567v-1.071zM30.625 16.533v.147h-.482v1.142h-.202V16.68h-.484v-.147h1.169zM32.137 17.821h-.156a.068.068 0 0 1-.044-.012.063.063 0 0 1-.026-.03l-.139-.306h-.669l-.139.306a.084.084 0 0 1-.021.035.067.067 0 0 1-.044.012h-.156l.591-1.288h.206l.598 1.283zm-.979-.478h.558l-.236-.524a1.097 1.097 0 0 1-.044-.121l-.022.068-.021.054-.234.523zM33.155 17.695a.752.752 0 0 0 .37-.07v-.29h-.236c-.006 0-.012 0-.017-.002s-.011-.004-.015-.008c-.004-.003-.007-.006-.009-.011s-.003-.008-.003-.013v-.099h.458v.494a.822.822 0 0 1-.249.105 1.206 1.206 0 0 1-.32.035.882.882 0 0 1-.298-.048.734.734 0 0 1-.236-.135.609.609 0 0 1-.206-.471.6.6 0 0 1 .205-.473.721.721 0 0 1 .236-.134.995.995 0 0 1 .317-.048c.055 0 .11.004.164.011a.85.85 0 0 1 .259.084.961.961 0 0 1 .103.067l-.057.08a.055.055 0 0 1-.046.025.079.079 0 0 1-.037-.01.48.48 0 0 1-.058-.031.558.558 0 0 0-.188-.064.842.842 0 0 0-.378.025.455.455 0 0 0-.284.262.601.601 0 0 0 0 .43.499.499 0 0 0 .291.264.683.683 0 0 0 .234.026zM35.039 17.674h.645v.147h-.842v-1.288h.202l-.005 1.142zM36.355 17.821h-.202v-1.288h.202v1.288zM37.106 16.539a.104.104 0 0 1 .031.023l.864.971a.353.353 0 0 1 0-.046V16.527h.176v1.294h-.102a.095.095 0 0 1-.044-.007.128.128 0 0 1-.032-.024l-.863-.97v1.002h-.169v-1.289h.105c.011 0 .023.002.033.006zM39.665 16.533v.142h-.716v.425h.58v.137h-.58v.44h.716v.142h-.924v-1.285h.924zM18.491 8.576l8.972 2.199v7.707l-8.972-2.198V8.576zm-.575-.657v8.739l10.122 2.482v-8.738L17.916 7.919z" style="fill:var(--color3, #afb1b8)"/><path fill="#afb1b8" d="m23.34 23.197-10.123-2.484v-8.739l10.123 2.483v8.74z" style="fill:var(--color3, #afb1b8)"/><path fill="#afb1b8" d="m18.083 8.477 8.855 2.172-3.766 3.252-8.856-2.173 3.767-3.251zm-.167-.558-4.698 4.056 10.123 2.483 4.697-4.056-10.122-2.483zM23.91 22.706l4.127-3.564-4.127-1.013v4.577z" style="fill:var(--color3, #afb1b8)"/></symbol><symbol id="icon-Client-5" viewBox="0 0 59 32"><path fill="#afb1b8" d="M20.437 21.125c.085.096.13.216.128.34.004.081-.011.161-.045.235s-.086.141-.152.194a.92.92 0 0 1-.575.157h-1.01v-2.154h.989a.904.904 0 0 1 .548.143c.064.049.114.111.148.181s.048.146.044.222a.468.468 0 0 1-.115.329.542.542 0 0 1-.301.168.586.586 0 0 1 .341.184zm-1.184-.325h.423a.43.43 0 0 0 .269-.072.251.251 0 0 0 .091-.211c.003-.039-.003-.078-.019-.114s-.04-.069-.071-.096a.44.44 0 0 0-.277-.073h-.416v.565zm.733.826c.034-.027.061-.061.078-.099s.025-.079.022-.12c.003-.042-.005-.083-.023-.121s-.045-.072-.079-.1a.465.465 0 0 0-.287-.078h-.444v.592h.449a.478.478 0 0 0 .284-.075zM22.459 22.051l-.55-.842h-.207v.842h-.473v-2.154h.896a.942.942 0 0 1 .624.183c.125.117.201.271.213.434s-.04.325-.146.457a.753.753 0 0 1-.427.219l.586.861h-.515zm-.757-1.135h.387c.269 0 .403-.109.403-.326a.304.304 0 0 0-.099-.242.443.443 0 0 0-.305-.087h-.392l.005.655zM25.047 21.618h-.943l-.167.433h-.496l.866-2.129h.537l.863 2.129h-.496l-.163-.433zm-.126-.327-.345-.909-.345.909h.689zM28.286 22.051h-.47l-1.054-1.464v1.464h-.469v-2.154h.469l1.054 1.473v-1.473h.47v2.154zM30.968 21.536a.976.976 0 0 1-.425.38 1.496 1.496 0 0 1-.661.136h-.837v-2.154h.837c.229-.005.455.04.661.133.18.083.328.214.425.376a1.164 1.164 0 0 1 0 1.13zm-.538-.052c.134-.143.208-.325.208-.514s-.074-.371-.208-.514a.865.865 0 0 0-.588-.183h-.326v1.394h.326a.864.864 0 0 0 .588-.183zM25.341 7.919s6.066 2.097 5.937 5.131v5.132s-6.061-2.098-5.935-5.132l-.002-5.131zM36.682 16.98a8.793 8.793 0 0 1 3.854-1.3v-1.607c-1.594.562-2.946 1.582-3.854 2.907z" style="fill:var(--color3, #afb1b8)"/><path fill="#afb1b8" d="M35.994 17.464c.937-1.729 2.563-3.063 4.542-3.727V9.108s-8.638 2.987-8.456 7.308v7.307s.385-.134.99-.384c0-.234 0-.469.028-.706.179-2.006 1.22-3.865 2.896-5.168z" style="fill:var(--color3, #afb1b8)"/><path fill="#afb1b8" d="M35.172 20.178a6.919 6.919 0 0 1 .302-1.496c-1.043 1.125-1.675 2.522-1.806 3.993a5.81 5.81 0 0 0-.023.421 25.701 25.701 0 0 0 1.661-.802 6.936 6.936 0 0 1-.134-2.116zM35.515 20.205a6.629 6.629 0 0 0 .107 1.916c2.36-1.293 5.012-3.291 4.91-5.705v-.21c-1.686.173-3.264.848-4.49 1.921a6.711 6.711 0 0 0-.526 2.079z" style="fill:var(--color3, #afb1b8)"/></symbol><symbol id="icon-Client-4" viewBox="0 0 59 32"><path fill="#2196f3" d="M19.529 12.905h-.001c-.834 0-1.51.601-1.51 1.342v.001c0 .741.676 1.342 1.51 1.342h.001c.834 0 1.51-.601 1.51-1.342v-.001c0-.741-.676-1.342-1.51-1.342zM30.677 12.476c-.002-1.03-.464-2.016-1.283-2.744s-1.929-1.138-3.088-1.141c-1.159.002-2.27.412-3.089 1.14s-1.281 1.715-1.283 2.745v5.678s8.742-.865 8.743-5.677v-.001zM14.957 20.017c.002.716.323 1.403.893 1.91s1.342.792 2.148.794c.806-.002 1.578-.288 2.148-.794s.891-1.193.893-1.909v-3.951s-6.083.603-6.083 3.95zm3.041.708c-.158 0-.311-.041-.442-.119s-.233-.188-.293-.318c-.06-.129-.076-.272-.045-.409s.107-.263.218-.362c.111-.099.253-.166.408-.194s.315-.013.46.04c.146.054.27.144.357.261s.134.253.134.393c0 .093-.02.186-.06.272s-.098.165-.172.23c-.074.066-.162.118-.259.154s-.201.054-.305.054v-.003zM24.145 20.335h-.587v.606h-.306v-1.484h.966v.248h-.66v.383h.587v.247zm1.47-.102c0 .146-.026.274-.077.384a.583.583 0 0 1-.552.345.589.589 0 0 1-.553-.342.876.876 0 0 1-.081-.379v-.073c0-.146.026-.274.078-.385a.583.583 0 0 1 .553-.346c.123 0 .233.03.329.09.096.059.171.144.223.256s.079.239.079.384v.066zm-.31-.067c0-.156-.028-.274-.084-.355s-.135-.121-.238-.121c-.103 0-.182.04-.237.12s-.084.196-.085.351v.072c0 .151.028.269.084.353s.136.125.241.125c.103 0 .181-.04.236-.12s.083-.198.084-.353v-.072zm1.301.386c0-.058-.02-.102-.061-.133s-.114-.064-.22-.098a1.662 1.662 0 0 1-.252-.102c-.168-.091-.253-.214-.253-.368 0-.08.022-.151.067-.214s.11-.112.195-.148c.085-.035.18-.053.285-.053s.2.019.283.058c.083.038.147.092.193.162s.069.149.069.238h-.306c0-.068-.021-.121-.064-.158s-.103-.057-.18-.057c-.075 0-.133.016-.174.048s-.062.073-.062.124c0 .048.024.089.072.121s.121.063.215.092c.174.052.301.117.38.195s.119.174.119.289c0 .128-.049.229-.146.303s-.228.109-.392.109c-.114 0-.218-.021-.312-.062s-.165-.099-.215-.172a.442.442 0 0 1-.073-.253h.307c0 .164.098.246.293.246.073 0 .129-.015.17-.044s.061-.071.061-.124zm1.632-.847h-.454v1.236h-.306v-1.236h-.448v-.248h1.209v.248zm1.068.594h-.587v.397h.689v.246h-.995v-1.484h.993v.248h-.687v.354h.587v.239zm.83.099h-.244v.543h-.306v-1.484h.551c.175 0 .31.039.406.117s.143.189.143.331c0 .101-.022.186-.066.254s-.11.121-.199.161l.321.606v.014h-.328l-.278-.543zm-.243-.247h.247c.077 0 .136-.019.178-.058s.063-.093.063-.162c0-.07-.02-.125-.06-.165s-.1-.06-.182-.06h-.246v.445zm1.852.268v.523h-.306v-1.484h.579c.111 0 .209.02.294.061a.456.456 0 0 1 .264.43c0 .145-.05.26-.15.344s-.237.125-.413.125h-.268zm0-.248h.273c.081 0 .142-.019.184-.057s.064-.092.064-.163c0-.073-.021-.131-.064-.176s-.102-.068-.177-.069h-.28v.466zm1.934.128h-.587v.397h.689v.246h-.995v-1.484h.993v.248h-.687v.354h.587v.239zm1.419-.594h-.455v1.236h-.306v-1.236h-.448v-.248h1.209v.248zm1.068.594h-.587v.397h.689v.246h-.994v-1.484h.992v.248h-.687v.354h.587v.239zm.83.099h-.243v.543h-.306v-1.484h.551c.175 0 .31.039.406.117s.143.189.143.331c0 .101-.022.186-.066.254s-.11.121-.199.161l.321.606v.014h-.328l-.278-.543zm-.243-.247H37c.077 0 .136-.019.178-.058s.063-.093.063-.162c0-.07-.02-.125-.06-.165s-.1-.06-.182-.06h-.246v.445zm1.796.401c0-.058-.021-.102-.061-.133s-.114-.064-.22-.098a1.602 1.602 0 0 1-.251-.102c-.169-.091-.253-.214-.253-.368 0-.08.022-.151.067-.214s.111-.112.195-.148a.742.742 0 0 1 .285-.053c.106 0 .2.019.283.058s.147.092.192.162c.046.07.07.149.07.238h-.306c0-.068-.022-.121-.064-.158s-.103-.057-.18-.057c-.075 0-.133.016-.174.048s-.062.073-.062.124c0 .048.024.089.072.121s.121.063.215.092c.174.052.301.117.38.195s.119.174.119.289c0 .128-.049.229-.146.303s-.228.109-.392.109c-.114 0-.218-.021-.312-.062s-.165-.099-.215-.172a.442.442 0 0 1-.073-.253h.307c0 .164.098.246.294.246.073 0 .129-.015.17-.044s.061-.071.061-.124z" style="fill:var(--color4, #2196f3)"/></symbol><symbol id="icon-Client-3" viewBox="0 0 59 32"><path fill="#afb1b8" d="M23.794 22.644c.006 0 .011.001.016.003l.013.008.076.073a.627.627 0 0 1-.213.138.817.817 0 0 1-.303.049.811.811 0 0 1-.285-.046.579.579 0 0 1-.352-.331.675.675 0 0 1-.048-.258.596.596 0 0 1 .199-.46.687.687 0 0 1 .228-.131.903.903 0 0 1 .293-.046.778.778 0 0 1 .272.042.745.745 0 0 1 .204.116l-.064.077a.073.073 0 0 1-.016.014.053.053 0 0 1-.053-.002l-.034-.021-.047-.026c-.02-.01-.042-.018-.064-.026a.634.634 0 0 0-.409.006.45.45 0 0 0-.272.252.518.518 0 0 0-.039.204.534.534 0 0 0 .039.208.454.454 0 0 0 .105.154.426.426 0 0 0 .157.096.559.559 0 0 0 .195.033.753.753 0 0 0 .116-.007.472.472 0 0 0 .25-.106.059.059 0 0 1 .036-.013zM25.984 22.28a.633.633 0 0 1-.051.256c-.031.074-.08.142-.143.199s-.14.101-.224.131a.918.918 0 0 1-.577 0 .664.664 0 0 1-.223-.131.587.587 0 0 1-.144-.201.67.67 0 0 1 0-.513.6.6 0 0 1 .144-.202.662.662 0 0 1 .223-.126.904.904 0 0 1 .577 0c.084.03.16.074.224.131s.111.125.143.199c.035.082.053.17.051.258zm-.199 0a.54.54 0 0 0-.036-.206.43.43 0 0 0-.261-.251.667.667 0 0 0-.419 0 .455.455 0 0 0-.16.097.411.411 0 0 0-.102.154.607.607 0 0 0 0 .412.411.411 0 0 0 .262.25.682.682 0 0 0 .419 0 .439.439 0 0 0 .16-.096.43.43 0 0 0 .101-.154.54.54 0 0 0 .036-.206zM27.479 22.496l.02.046.022-.046c.008-.015.015-.031.025-.045l.485-.765c.009-.013.018-.021.027-.024a.133.133 0 0 1 .04-.004h.143v1.245h-.17V21.906l-.487.776c-.006.012-.016.021-.029.028s-.027.01-.042.01h-.027c-.015 0-.029-.003-.042-.01s-.022-.017-.028-.028l-.502-.781v.999h-.164v-1.242h.143a.136.136 0 0 1 .04.004.058.058 0 0 1 .027.024l.495.766c.01.014.018.029.025.044zM29.302 22.434v.466h-.19v-1.243h.423a.934.934 0 0 1 .236.027.49.49 0 0 1 .167.077.32.32 0 0 1 .095.122.383.383 0 0 1 .032.159.351.351 0 0 1-.137.283.479.479 0 0 1-.168.082.8.8 0 0 1-.229.029l-.23-.003zm0-.134h.23a.52.52 0 0 0 .147-.019.313.313 0 0 0 .106-.054.209.209 0 0 0 .064-.082.255.255 0 0 0 .023-.105c.002-.035-.004-.069-.019-.101s-.037-.061-.066-.085a.408.408 0 0 0-.255-.067h-.23v.512zM31.852 22.902h-.15a.076.076 0 0 1-.042-.012.086.086 0 0 1-.025-.029l-.129-.301h-.648l-.134.301a.07.07 0 0 1-.067.04h-.15l.569-1.245h.197l.577 1.245zm-.939-.463h.535l-.226-.507a.82.82 0 0 1-.043-.117l-.022.065a.586.586 0 0 1-.021.053l-.224.506zM32.671 21.662a.076.076 0 0 1 .028.022l.83.939v-.967h.17v1.245h-.095c-.013 0-.027-.002-.039-.007s-.022-.014-.03-.023l-.829-.938v.968h-.17v-1.245h.101c.012 0 .023.002.034.006zM35.097 22.407v.494h-.19v-.494l-.525-.75h.17a.065.065 0 0 1 .041.011c.01.008.019.017.026.028l.328.484c.013.021.025.04.034.058s.017.035.024.053l.025-.054a.397.397 0 0 1 .032-.057l.323-.487a.103.103 0 0 1 .025-.026.059.059 0 0 1 .041-.012h.172l-.526.753zM27.385 19.567c.082.009.166.017.25.023 1.28-.497 2.362-1.311 3.112-2.34s1.134-2.227 1.105-3.445l-1.41-1.225c.287 1.296.153 2.637-.387 3.871s-1.465 2.313-2.67 3.117z" style="fill:var(--color3, #afb1b8)"/><path fill="#afb1b8" d="m26.881 19.51.038.007c1.288-.801 2.271-1.919 2.82-3.209s.64-2.695.261-4.031l-2.009-1.745c.812 1.434 1.139 3.04.943 4.629s-.908 3.098-2.053 4.35zM33.693 15.244c-.341 1.338-1.17 2.545-2.363 3.441a7.477 7.477 0 0 1-1.123.7c.972-.248 1.865-.687 2.61-1.282s1.324-1.332 1.69-2.152l-.815-.707z" style="fill:var(--color3, #afb1b8)"/><path fill="#afb1b8" d="m33.374 15.047-1.16-1.008c-.022 1.149-.398 2.272-1.089 3.252s-1.671 1.781-2.838 2.321h.006c.26 0 .52-.014.779-.04 1.091-.387 2.055-1.003 2.806-1.792s1.265-1.728 1.497-2.732zM27.049 9.795l-1.384-1.204c-1.237.415-2.301 1.145-3.052 2.095s-1.156 2.074-1.159 3.226c.005 1.273.498 2.508 1.401 3.511s2.166 1.714 3.588 2.022c1.269-1.343 2.012-3.003 2.121-4.739s-.422-3.456-1.515-4.911zM36.57 14.862c-.005-1.51-.698-2.958-1.927-4.026s-2.895-1.67-4.634-1.674a7.353 7.353 0 0 0-2.349.38l8.471 7.36c.29-.651.439-1.342.438-2.04z" style="fill:var(--color3, #afb1b8)"/></symbol><symbol id="icon-Client-2" viewBox="0 0 59 32"><path fill="#afb1b8" d="M28.561 8.225c.08 0 .166.007.252.015l.025.002c.415.029.827.091 1.232.186v-.996a7.396 7.396 0 0 0-1.271-.203 11.43 11.43 0 0 0-.514-.025h-.149c-.861.003-1.718.114-2.552.329-.95.237-1.861.608-2.707 1.101v9.877a10.993 10.993 0 0 1 2.581-1.006c.71-.181 1.435-.292 2.166-.333h.029a8.98 8.98 0 0 1 .37-.011v-1.012c-.95.012-1.895.138-2.816.374-.341.088-.67.184-.978.29l-.352.119V9.231l.15-.073a9.826 9.826 0 0 1 3.69-.933c.14-.007.281-.011.419-.011h.158c.073.002.146.004.219.008h.047zm1.753 1.018c.221.017.45.025.681.025a10.942 10.942 0 0 0 2.683-.344 11.049 11.049 0 0 0 2.58-1.007v9.701c-.847.493-1.758.864-2.708 1.101-.834.214-1.691.325-2.552.328a7.802 7.802 0 0 1-1.936-.228V9.055c.15.034.304.066.46.093.257.043.528.075.792.095zm4.937.076-.352.118c-.324.109-.65.206-.978.293-.956.246-1.938.371-2.924.375-.23 0-.441-.006-.645-.019l-.281-.019v7.922l.241.021c.224.019.454.029.686.029a9.326 9.326 0 0 0 2.303-.298 9.582 9.582 0 0 0 1.799-.647l.151-.073V9.317zM23.561 21.887a.53.53 0 0 0-.392-.158.585.585 0 0 0-.226.042.519.519 0 0 0-.289.293.582.582 0 0 0-.041.218v1.32a.63.63 0 0 0 .052.271.482.482 0 0 0 .313.271c.064.018.13.027.197.027a.55.55 0 0 0 .546-.555v-.148h-.345v.118a.319.319 0 0 1-.02.118.206.206 0 0 1-.05.074.217.217 0 0 1-.072.038.222.222 0 0 1-.072.012c-.031.004-.062-.001-.09-.014s-.053-.032-.071-.057a.315.315 0 0 1-.046-.177v-1.23a.419.419 0 0 1 .042-.197.174.174 0 0 1 .169-.079.182.182 0 0 1 .154.074.276.276 0 0 1 .057.177v.114h.341v-.134a.63.63 0 0 0-.042-.231.552.552 0 0 0-.115-.186zM25.61 21.872a.605.605 0 0 0-.78 0 .537.537 0 0 0-.134.185.61.61 0 0 0-.05.256v1.266a.62.62 0 0 0 .05.259.516.516 0 0 0 .134.177.534.534 0 0 0 .182.111.605.605 0 0 0 .412 0c.069-.025.132-.063.187-.111s.099-.11.13-.177a.608.608 0 0 0 .05-.259v-1.266a.574.574 0 0 0-.18-.441zm-.161 1.706c.003.034-.002.068-.014.099s-.031.06-.055.084a.254.254 0 0 1-.324 0 .227.227 0 0 1-.069-.183v-1.266c-.003-.034.002-.068.014-.099s.031-.06.055-.084a.254.254 0 0 1 .324 0 .227.227 0 0 1 .069.183v1.266zM28.302 24.143v-2.396h-.332l-.436 1.268h-.006l-.439-1.268h-.328v2.396h.342v-1.458h.006l.335 1.03h.171l.338-1.03h.006v1.458h.342zM30.246 21.915a.478.478 0 0 0-.194-.131.746.746 0 0 0-.248-.037h-.509v2.396h.341v-.936h.176a.629.629 0 0 0 .308-.065.49.49 0 0 0 .187-.183.582.582 0 0 0 .078-.209c.013-.09.02-.181.018-.272a1.403 1.403 0 0 0-.033-.342.506.506 0 0 0-.126-.22zm-.176.731a.29.29 0 0 1-.032.125.193.193 0 0 1-.088.084.345.345 0 0 1-.161.03h-.156v-.815h.176a.327.327 0 0 1 .154.03c.035.02.063.051.08.088a.34.34 0 0 1 .03.134v.159c0 .055.003.113 0 .165h-.003zM31.864 21.747h-.28l-.528 2.396h.341l.1-.515h.465l.1.515h.341l-.541-2.396zm-.315 1.555.168-.869h.006l.167.869h-.341zM34.069 23.191h-.006l-.516-1.443h-.328v2.396h.341v-1.441h.007l.522 1.441h.321v-2.396h-.341v1.443zM36.156 21.747l-.275.953h-.007l-.274-.953h-.362l.469 1.383v1.013h.342V23.13l.469-1.383h-.361zM22.609 24.82h.165v.462h.112v-.462h.164v-.095h-.44v.095zM23.992 24.725l-.216.556h.119l.046-.127h.222l.047.127h.121l-.221-.556h-.119zm-.018.337.076-.206.076.206h-.151zM25.359 25.077h.128v.072a.213.213 0 0 1-.132.047.14.14 0 0 1-.118-.053.232.232 0 0 1-.041-.145c0-.124.054-.186.16-.186a.118.118 0 0 1 .126.089l.11-.021c-.024-.109-.102-.164-.236-.164a.277.277 0 0 0-.194.072.278.278 0 0 0-.081.214.305.305 0 0 0 .071.209.265.265 0 0 0 .211.081.337.337 0 0 0 .236-.088v-.219h-.241v.094zM26.756 24.725h-.113v.556h.39v-.095h-.277v-.462zM27.937 24.725h-.113v.556h.113v-.556zM29.091 25.097l-.228-.371h-.109v.556h.105v-.364l.224.364h.112v-.556h-.103v.371zM30.135 25.037h.277v-.095h-.277v-.122h.298v-.095h-.411v.556h.422v-.095h-.31v-.15zM32.665 24.945h-.219v-.219h-.112v.556h.112v-.243h.219v.243h.112v-.556h-.112v.219zM33.715 25.037h.278v-.095h-.278v-.122h.299v-.095h-.411v.556h.421v-.095h-.31v-.15zM35.138 25.037c.097-.015.146-.066.146-.155a.129.129 0 0 0-.054-.123.315.315 0 0 0-.163-.033h-.236v.556h.112v-.233h.022a.167.167 0 0 1 .07.012.12.12 0 0 1 .04.041l.121.177h.134l-.068-.109a.395.395 0 0 0-.123-.134zm-.112-.077h-.082v-.14h.088a.288.288 0 0 1 .113.013c.008.007.015.016.019.026s.006.021.006.032a.068.068 0 0 1-.029.055.313.313 0 0 1-.114.013zM36.212 25.037h.277v-.095h-.277v-.122h.299v-.095h-.412v.556h.422v-.095h-.31v-.15z" style="fill:var(--color3, #afb1b8)"/></symbol><symbol id="icon-Client-1" viewBox="0 0 59 32"><path fill="#afb1b8" d="m24.348 8.596 2.438 2.308-4.524-.003v11.196h11.826v-4.281l2.435 2.305V8.596H24.349zm9.632 8.949-6.911-6.543h6.911v6.543zm-2.146 2.914h-7.702v-7.53h.544v7.02h7.157v.51zm-5.883 3.128h.238l-.414.781v.455h-.216v-.455l-.415-.781h.239l.285.586.285-.586zm.357 1.236.1-.288h.479l.101.288h.224l-.468-1.236h-.193l-.467 1.236h.223zm.34-.974.179.513h-.358l.179-.513zm1.133.483a.325.325 0 0 0 .063.411c.073.065.172.097.294.097s.228-.033.316-.099l.07.082h.239l-.182-.215a.62.62 0 0 0 .107-.375h-.179a.49.49 0 0 1-.052.227l-.239-.282.084-.061c.059-.043.102-.086.128-.129s.039-.091.039-.143c0-.078-.029-.143-.087-.196s-.131-.08-.221-.08c-.1 0-.179.028-.238.085s-.088.132-.088.229c0 .04.009.081.028.123s.053.094.101.155a.726.726 0 0 0-.184.171zm.558.274a.32.32 0 0 1-.195.07c-.062 0-.111-.018-.148-.053s-.055-.082-.055-.139c0-.066.034-.125.102-.177l.026-.019.27.318zm-.222-.548c-.058-.072-.087-.132-.087-.179 0-.041.012-.076.036-.103s.056-.041.096-.041c.037 0 .068.012.093.035s.037.05.037.082a.153.153 0 0 1-.053.12l-.026.021-.094.065zm2.013.672a.498.498 0 0 1-.339.11.458.458 0 0 1-.434-.27.72.72 0 0 1-.064-.3v-.115c0-.117.021-.219.062-.308s.101-.157.177-.206a.5.5 0 0 1 .268-.072c.136 0 .246.037.329.111s.132.179.145.314h-.214c-.01-.089-.036-.153-.078-.192s-.102-.059-.183-.059c-.093 0-.165.034-.216.103s-.075.168-.076.3v.11c0 .134.024.235.071.306s.118.105.211.105c.084 0 .148-.019.19-.057s.069-.101.081-.189h.214a.445.445 0 0 1-.146.309zm1.262-.173a.76.76 0 0 0 .063-.319v-.069c-.001-.121-.022-.226-.065-.317a.477.477 0 0 0-.448-.282.482.482 0 0 0-.449.285.748.748 0 0 0-.064.319v.07c.001.118.022.223.065.313s.104.16.182.21a.497.497 0 0 0 .268.073c.101 0 .191-.024.268-.073s.138-.119.18-.211zm-.23-.699a.539.539 0 0 1 .078.315v.065c0 .139-.026.245-.077.318s-.124.109-.219.109c-.094 0-.168-.037-.221-.111s-.079-.179-.079-.315v-.071c.001-.133.028-.236.08-.308s.125-.11.218-.11c.095 0 .168.037.22.11z" style="fill:var(--color3, #afb1b8)"/></symbol><symbol id="icon-astronaut-1" viewBox="0 0 32 32"><path fill="#2196f3" d="M31.974 4.524a.534.534 0 0 0-.43-.363l-1.91-.278-.855-1.731c-.179-.365-.777-.365-.956 0l-.855 1.731-1.91.278a.535.535 0 0 0-.296.91l1.383 1.348-.326 1.903c-.034.2.048.402.212.522a.53.53 0 0 0 .562.04l1.709-.899 1.709.899a.536.536 0 0 0 .775-.563l-.326-1.903 1.383-1.348a.536.536 0 0 0 .135-.547zm-2.463 1.327a.534.534 0 0 0-.153.472l.191 1.114-1-.526a.533.533 0 0 0-.498 0l-1.001.526.191-1.114a.534.534 0 0 0-.153-.472l-.81-.789 1.119-.163a.532.532 0 0 0 .402-.292l.5-1.013.5 1.013a.535.535 0 0 0 .402.292l1.119.163-.809.789zM26.134 20.522h-1.067v1.067h1.067v-1.067zM26.134 22.656h-1.067v1.067h1.067v-1.067zM27.2 21.589h-1.067v1.067H27.2v-1.067zM25.067 21.589H24v1.067h1.067v-1.067zM22.4 26.389h-1.067v1.067H22.4v-1.067zM22.4 28.522h-1.067v1.067H22.4v-1.067zM23.467 27.456H22.4v1.067h1.067v-1.067zM21.333 27.456h-1.067v1.067h1.067v-1.067zM16 24.256h-1.067v1.067H16v-1.067zM16 26.389h-1.067v1.067H16v-1.067zM17.067 25.322H16v1.067h1.067v-1.067zM14.933 25.322h-1.067v1.067h1.067v-1.067zM5.867 6.122H4.8v1.067h1.067V6.122zM5.867 8.255H4.8v1.067h1.067V8.255z" style="fill:var(--color4, #2196f3)"/><path fill="#2196f3" d="M6.933 7.189H5.866v1.067h1.067V7.189zM4.8 7.189H3.733v1.067H4.8V7.189z" style="fill:var(--color4, #2196f3)"/><path fill="#212121" d="M24.715 14.159a1.775 1.775 0 0 0-1.188-.705 1.778 1.778 0 0 0-1.34.352l-1.252.96-1.898 1.417-1.358-.541c2.421-1.086 4.114-3.508 4.114-6.32 0-3.823-3.123-6.933-6.961-6.933s-6.961 3.11-6.961 6.933a6.86 6.86 0 0 0 1.12 3.758l-2.764-.024h-.005c-.009 0-.015.004-.023.005a.515.515 0 0 0-.155.031l-.038.013c-.006.003-.013.003-.019.006l-3.233 1.596-.001.001-1.893.911a.397.397 0 0 0-.063.035 1.779 1.779 0 0 0-.598 2.295c.22.429.595.745 1.056.889a1.776 1.776 0 0 0 1.378-.128l1.388-.738 2.264-1.169 1.357-.008L2.2 22.211l-.002.001-1.339 1.333c-.316.315-.49.732-.49 1.178s.174.863.49 1.179c.325.323.752.485 1.179.485s.854-.162 1.18-.485l1.314-1.309 1.741-1.3.901.897-1.762 1.754-.002.001-1.339 1.333c-.316.315-.49.732-.49 1.178s.174.863.49 1.179c.325.323.753.485 1.18.485s.855-.162 1.18-.485l3.482-3.467.001-.002 1.01-1-.004-.004c.006-.006.015-.009.022-.015l5.166-5.658 3.471.494a.52.52 0 0 0 .262-.033c.018-.006.033-.015.05-.023.019-.01.039-.015.058-.027l3.213-2.133c.012-.008.018-.021.029-.029.013-.01.029-.014.041-.026l1.271-1.191c.662-.62.753-1.635.212-2.362zM2.13 17.77a.714.714 0 0 1-.558.052.717.717 0 0 1-.213-1.26l1.314-.632.449 1.313-.992.527zm3.498-1.828-1.548.8-.439-1.283 2.027-1.001-.04 1.484zm15.099-6.62a5.79 5.79 0 0 1-.599 2.559l-4.181-1.899a1.863 1.863 0 0 0-.788-1.388l1.464-4.86c2.378.756 4.105 2.974 4.105 5.588zm-11.789 0c0-3.235 2.644-5.867 5.894-5.867.253 0 .5.021.745.052l-1.432 4.754c-.019-.001-.037-.006-.057-.006-1.033 0-1.873.837-1.873 1.867s.84 1.867 1.873 1.867c.694 0 1.294-.383 1.618-.945l3.862 1.755a5.894 5.894 0 0 1-4.737 2.39c-3.25 0-5.894-2.632-5.894-5.867zm5.956.8c0 .441-.362.8-.806.8s-.806-.359-.806-.8c0-.441.362-.8.806-.8s.806.359.806.8zM2.465 25.146a.608.608 0 0 1-.854.001.592.592 0 0 1 0-.844l.962-.959.851.848-.959.955zm3.214 3.734a.608.608 0 0 1-.855.001.592.592 0 0 1 0-.844l.963-.959.852.848-.96.955zm3.481-3.469-.002.001-1.765 1.76-.852-.848 1.763-1.755.002-.001c.04-.04.065-.088.09-.135.007-.014.02-.026.026-.04.017-.041.019-.085.026-.129.003-.025.014-.047.014-.073 0-.036-.013-.07-.02-.106-.006-.032-.006-.065-.019-.095a.55.55 0 0 0-.091-.138c-.01-.012-.014-.027-.025-.038h-.001l-.001-.002-1.607-1.6c-.017-.017-.039-.024-.058-.038a.507.507 0 0 0-.087-.058.515.515 0 0 0-.093-.033.507.507 0 0 0-.103-.02.5.5 0 0 0-.095.005.53.53 0 0 0-.104.02.477.477 0 0 0-.094.045c-.02.011-.042.015-.061.029L4.23 23.486l-.901-.897 2.399-2.386 4.361 4.289-.928.919zm6.819-7.017c-.015-.002-.03.004-.045.003a.556.556 0 0 0-.3.075.492.492 0 0 0-.083.061c-.013.011-.028.017-.04.029l-4.698 5.146-4.328-4.257 2.833-2.818a.534.534 0 0 0-.379-.911v-.001l-2.219.013.028-1.607 3.104.027a6.947 6.947 0 0 0 4.981 2.101c.437 0 .864-.045 1.279-.123.04.032.079.065.13.085l2.41.96.152.758.178.885-3.003-.427zm4.041.178-.313-1.558 1.446-1.08.947 1.257-2.08 1.381zm3.754-2.831-.838.785-.931-1.236.831-.637a.735.735 0 0 1 .543-.143.718.718 0 0 1 .48.284.713.713 0 0 1-.085.947z" style="fill:var(--color5, #212121)"/><path fill="#212121" d="m13.602 18.544-2.143-2.133a.534.534 0 0 0-.753 0l-2.142 2.133a.537.537 0 0 0 0 .756l2.142 2.133a.536.536 0 0 0 .753 0l2.143-2.133a.535.535 0 0 0 0-.756zm-2.519 1.759-1.387-1.381 1.387-1.381 1.387 1.381-1.387 1.381zM17.164 5.071l-.258 1.036c.071.018 1.738.452 1.738 2.149h1.067c0-2.017-1.666-2.965-2.547-3.185zM19.711 9.322h-1.067v1.067h1.067V9.322z" style="fill:var(--color5, #212121)"/></symbol><symbol id="icon-diagram-1" viewBox="0 0 32 32"><path fill="#2196f3" d="M14.926 14.965h1.066v4.798h-1.066v-4.797zM19.19 17.097h1.066v2.665H19.19v-2.665zM10.661 18.696h1.066v1.066h-1.066v-1.066zM7.463 18.163h1.066v1.599H7.463v-1.599z" style="fill:var(--color4, #2196f3)"/><path fill="#212121" d="M1.599 28.291h25.587a1.6 1.6 0 0 0 1.599-1.599V24.56a1.6 1.6 0 0 0-1.599-1.599h-.533V9.668L29.681 6.8a1.608 1.608 0 1 0-.746-.763L26.654 8.2V6.97a1.6 1.6 0 0 0-1.599-1.599H3.733A1.6 1.6 0 0 0 2.134 6.97v15.992h-.533a1.6 1.6 0 0 0-1.599 1.599v2.132a1.6 1.6 0 0 0 1.599 1.599zM30.384 4.837a.533.533 0 1 1 0 1.067.533.533 0 0 1 0-1.067zM3.198 6.969c0-.294.239-.533.533-.533h21.322c.294 0 .533.239.533.533v2.239l-1.066 1.013V8.035a.533.533 0 0 0-.533-.533H4.797a.533.533 0 0 0-.533.533v13.326c0 .294.239.533.533.533h19.19a.533.533 0 0 0 .533-.533v-9.674l1.066-1.01v12.284H3.198V6.969zm4.798 6.93a1.598 1.598 0 1 0 1.107 2.749l1.853.93a.532.532 0 0 0 .636-.123l3.939-4.431 3.872 2.901a.533.533 0 0 0 .686-.039l3.365-3.188v8.131H5.33V8.569h18.124v2.66l-3.771 3.572-3.904-2.927a.533.533 0 0 0-.718.072l-3.993 4.493-1.493-.746c.011-.064.018-.129.02-.193a1.6 1.6 0 0 0-1.599-1.599zm.533 1.599a.533.533 0 1 1-1.067 0 .533.533 0 0 1 1.067 0zm3.198 8.528h5.331v.533a.533.533 0 0 1-.533.533h-4.264a.533.533 0 0 1-.533-.533v-.533zm-10.661.534c0-.294.239-.533.533-.533h9.062v.533a1.6 1.6 0 0 0 1.599 1.599h4.264a1.6 1.6 0 0 0 1.599-1.599v-.533h9.062c.294 0 .533.239.533.533v2.132a.533.533 0 0 1-.533.533H1.598a.533.533 0 0 1-.533-.533V24.56z" style="fill:var(--color5, #212121)"/></symbol><symbol id="icon-clock-1" viewBox="0 0 32 32"><path fill="#212121" d="M31.297 15.301C31.295 6.849 24.442-.002 15.989 0S.686 6.855.688 15.308a15.304 15.304 0 0 0 10.649 14.576.662.662 0 0 0 .529-.065.637.637 0 0 0 .283-.356l3.865-12.25a1.912 1.912 0 1 0-.84-3.635l-5.106-5.107a.637.637 0 0 0-.902.902l5.103 5.109a1.876 1.876 0 0 0 .536 2.309l-3.683 11.673C3.844 25.783.118 17.71 2.799 10.432S13.553-.572 20.831 2.109s11.004 10.754 8.323 18.032a14.042 14.042 0 0 1-7.462 7.973l-.398-1.874a.638.638 0 0 0-1.048-.344l-3.837 3.426a.637.637 0 0 0 .231 1.084l4.899 1.563a.638.638 0 0 0 .819-.74l-.391-1.839a15.255 15.255 0 0 0 9.329-14.089zm-15.305-.637a.638.638 0 1 1 0 1.277.638.638 0 0 1 0-1.277zm2.101 14.864 2.184-1.948.603 2.84-2.787-.892z" style="fill:var(--color5, #212121)"/><path fill="#2196f3" d="M15.354 3.185V4.46a.638.638 0 1 0 1.276 0V3.185a.638.638 0 0 0-1.276 0zM3.876 14.664a.638.638 0 0 0 0 1.276h1.275a.638.638 0 1 0 0-1.276H3.876zM28.108 15.939a.638.638 0 1 0 0-1.276h-1.275a.638.638 0 0 0 0 1.276h1.275z" style="fill:var(--color4, #2196f3)"/></symbol><symbol id="icon-antenna-11" viewBox="0 0 32 32"><path fill="#212121" d="m30.773 22.098-8.443-8.505.937-4.615c.242.094.499.144.758.146h.006a2.159 2.159 0 1 0-2.008-1.435l-4.96.605L8.972.161a.534.534 0 0 0-.377-.16.532.532 0 0 0-.373.155L6.709 1.66a.534.534 0 0 0 0 .754l.814.826a14.943 14.943 0 0 0 2.519 17.663.513.513 0 0 0 .146.098c-.034.18-.051.364-.052.547v6.187h-6.4a2.67 2.67 0 0 0-2.667 2.667v1.067c0 .295.239.533.533.533h24.533a.533.533 0 0 0 .533-.533v-1.067a2.67 2.67 0 0 0-2.667-2.667h-6.4v-2.742a15.09 15.09 0 0 0 3.049.32 14.854 14.854 0 0 0 7.04-1.783l.818.823a.534.534 0 0 0 .377.16.532.532 0 0 0 .373-.155l1.513-1.504a.534.534 0 0 0 0-.754zM23.28 6.233a1.066 1.066 0 1 1 .752 1.822h-.003a1.067 1.067 0 0 1-.747-1.823h-.002zm-1.256 3.505-.598 2.946-1.175-1.182 1.774-1.763zm-.605-.902-1.92 1.909-1.485-1.493 3.405-.415zM24.004 28.8a1.6 1.6 0 0 1 1.6 1.6v.533H2.137V30.4a1.6 1.6 0 0 1 1.6-1.6h20.267zm-7.467-2.133v1.067h-5.333v-1.067h5.333zM11.204 25.6v-4.053c0-1.294 1.196-2.347 2.667-2.347s2.667 1.053 2.667 2.347V25.6h-5.333zm6.4-1.696v-2.357c0-1.882-1.675-3.413-3.733-3.413a3.8 3.8 0 0 0-3.281 1.786A13.87 13.87 0 0 1 8.311 4.033l18.602 18.708a13.818 13.818 0 0 1-9.309 1.163zm11.289-.684L7.836 2.039l.755-.752 7.935 7.98c.004 0 .006.007.01.01l13.115 13.191-.757.752z" style="fill:var(--color5, #212121)"/><path fill="#2196f3" d="M13.876 20.267h-.005a1.6 1.6 0 1 0-.004 3.2h.005a1.6 1.6 0 1 0 .004-3.2zm.373 1.978a.534.534 0 0 1-.752-.756.534.534 0 0 1 .373-.155.532.532 0 0 1 .373.911h.005z" style="fill:var(--color4, #2196f3)"/></symbol><symbol id="icon-Vector" viewBox="0 0 20 32"><path fill="#757575" d="M17 0H3C1.346 0 0 1.346 0 3v26c0 1.654 1.346 3 3 3h14c1.654 0 3-1.346 3-3V3c0-1.654-1.346-3-3-3zM3 2h14a1 1 0 0 1 1 1v21H2V3a1 1 0 0 1 1-1zm14 28H3a1 1 0 0 1-1-1v-3h16v3a1 1 0 0 1-1 1z" style="fill:var(--color1, #757575)"/></symbol></defs></svg>